<?xml version="1.0" encoding="UTF-8"?>
<svg id="Calque_1" data-name="Calque 1" xmlns="http://www.w3.org/2000/svg" xmlns:xlink="http://www.w3.org/1999/xlink" viewBox="0 0 722.3 229.07">
  <defs>
    <style>
      .cls-1 {
        fill: url(#Dégradé_sans_nom_60);
      }

      .cls-2 {
        fill: #f8f7f9;
      }
    </style>
    <linearGradient id="Dégradé_sans_nom_60" data-name="Dégradé sans nom 60" x1="521.03" y1="51.94" x2="713.89" y2="179.72" gradientUnits="userSpaceOnUse">
      <stop offset="0" stop-color="#98d0c5"/>
      <stop offset=".62" stop-color="#00ada4"/>
      <stop offset="1" stop-color="#00947b"/>
    </linearGradient>
  </defs>
  <rect class="cls-1" x="535.33" y="21.53" width="164.26" height="188.61" rx="12.64" ry="12.64"/>
  <path class="cls-2" d="M619.18,53.16c32.62,0,53.23,18.03,53.23,50.65h-27.47c0-6.01-9.44-14.59-25.76-14.59-17.85,0-29.19,8.59-29.19,26.61s11.33,26.61,29.19,26.61c13.22,0,21.98-5.66,24.72-12.88h-24.72v-18.89h53.23v65.24h-13.74l-5.49-21.8c-6.53,16.31-17.17,24.38-35.71,24.38-34.34,0-54.94-18.03-54.94-62.67s22.32-62.67,56.66-62.67Z"/>
  <g>
    <path d="M148.08,167.49c0-10.03,5.42-16.15,14.69-16.15s14.69,6.12,14.69,16.15v19.26h-2.73v-10.55h-23.92v10.55h-2.73v-19.26ZM174.73,173.56v-6.07c0-8.43-4.38-13.51-11.96-13.51s-11.96,5.08-11.96,13.51v6.07h23.92Z"/>
    <path d="M185.51,180.25v-28.07l2.64-.85v29.05c0,2.97.8,4.33,2.92,4.33,1.18,0,2.12-.28,2.83-.99v2.68c-.52.47-1.51.9-3.01.9-3.06,0-5.37-1.41-5.37-7.06Z"/>
    <path d="M227.47,183.73v2.68c-.52.47-1.51.9-3.01.9-2.92,0-5.13-1.27-5.37-5.56-1.79,3.01-5.13,5.56-9.94,5.56-7.63,0-12.53-4.94-12.53-13.37s4.85-13.37,12.62-13.37c4.1,0,7.44,1.6,9.89,4.29l.19-3.72h2.4v19.26c0,2.97.8,4.33,2.92,4.33,1.18,0,2.12-.28,2.83-.99ZM219.09,173.94v-5.7c-2.12-3.11-5.32-5.09-9.94-5.09-5.65,0-9.7,4.05-9.7,10.78s3.81,10.78,9.7,10.78c6.83,0,9.94-4.47,9.94-10.78Z"/>
    <path d="M231.24,156.28v-4.38h3.63v4.38h-3.63ZM231.75,186.75v-25.62h2.64v25.62h-2.64Z"/>
    <path d="M242.21,161.13h2.4l.19,5.42c1.93-3.86,5.75-5.98,10.31-5.98,6.78,0,11.02,3.81,11.02,11.54v14.64h-2.64v-14.64c0-6.03-3.2-8.95-8.71-8.95-6.31,0-9.94,4.47-9.94,10.83v12.76h-2.64v-25.62Z"/>
    <path d="M285.43,151.9h11.4c11.49,0,18.18,7.11,18.18,17.42s-6.69,17.42-18.18,17.42h-11.4v-34.85ZM296.83,184.11c9.7,0,15.26-5.98,15.26-14.79s-5.56-14.79-15.26-14.79h-8.67v29.57h8.67Z"/>
    <path d="M319.57,173.94c0-7.86,4.61-13.37,12.48-13.37s12.38,5.51,12.38,13.37c0,.42,0,.56-.05,1.04h-22.04c.38,5.98,3.58,9.75,10.31,9.75,2.83,0,6.4-.75,9.28-2.78l1.22,2.4c-3.01,1.98-6.88,2.97-10.45,2.97-8.81,0-13.14-5.51-13.14-13.37ZM341.56,172.43c-.57-5.51-4-9.28-9.51-9.28s-9.04,3.77-9.61,9.28h19.12Z"/>
    <path d="M349.14,173.94c0-7.86,4.43-13.37,12.57-13.37,4.29,0,7.11,1.22,9.28,2.92l-1.46,2.26c-2.21-1.65-4.66-2.59-7.49-2.59-6.5,0-10.08,4.47-10.08,10.78s3.58,10.78,10.08,10.78c3.11,0,5.6-.94,8.05-2.78l1.41,2.21c-2.54,1.79-5.37,3.16-10.27,3.16-7.49,0-12.1-5.23-12.1-13.37Z"/>
    <path d="M376.74,186.75v-34.56l2.64-.85v14.93c1.93-3.67,5.7-5.75,10.27-5.75,6.73,0,11.02,3.81,11.02,11.58v14.64h-2.64v-14.64c0-6.22-3.2-8.99-8.71-8.99-6.31,0-9.94,4.52-9.94,10.88v12.76h-2.64Z"/>
    <path d="M437.58,183.73v2.68c-.52.47-1.51.9-3.01.9-2.92,0-5.13-1.27-5.37-5.56-1.79,3.01-5.13,5.56-9.94,5.56-7.63,0-12.53-4.94-12.53-13.37s4.85-13.37,12.62-13.37c4.1,0,7.44,1.6,9.89,4.29l.19-3.72h2.4v19.26c0,2.97.8,4.33,2.92,4.33,1.18,0,2.12-.28,2.83-.99ZM429.19,173.94v-5.7c-2.12-3.11-5.32-5.09-9.94-5.09-5.65,0-9.7,4.05-9.7,10.78s3.81,10.78,9.7,10.78c6.83,0,9.94-4.47,9.94-10.78Z"/>
    <path d="M441.2,175.02v-13.89h2.64v13.89c0,6.36,3.3,9.84,9.09,9.84s9.09-3.48,9.09-9.84v-13.89h2.64v13.89c0,7.86-4.38,12.29-11.72,12.29s-11.73-4.43-11.73-12.29Z"/>
    <path d="M494.41,186.75c-.57-1.37-.99-2.83-1.13-5.04-1.79,3.3-5.46,5.6-10.36,5.6-7.3,0-12.2-4.94-12.2-13.37s4.99-13.37,13.37-13.37c3.63,0,6.64.57,9.09,2.21v-10.6l2.64-.85v28.02c0,3.39.14,4.85.89,7.39h-2.31ZM493.19,173.94v-8.33c-2.5-1.79-5.13-2.5-8.85-2.5-6.54,0-10.78,3.81-10.78,10.83s3.81,10.78,9.61,10.78c6.92,0,10.03-4.47,10.03-10.78Z"/>
  </g>
  <g>
    <path d="M18.87,81.34c0-19.17,10.47-30.79,28.4-30.79s28.31,11.63,28.31,30.79v35.94h-11.18v-17.93H30.05v17.93h-11.18v-35.94ZM64.4,88.44v-7.1c0-12.51-6.3-19.97-17.13-19.97s-17.22,7.45-17.22,19.97v7.1h34.34Z"/>
    <path d="M85.69,51.61h23.61c20.86,0,33.55,13.4,33.55,32.84s-12.69,32.84-33.55,32.84h-23.61V51.61ZM109.29,106.63c14.02,0,21.83-8.87,21.83-22.19s-7.81-22.19-21.83-22.19h-12.42v44.37h12.42Z"/>
    <path d="M199.54,90.04v-10.29h30.26v4.7c0,20.23-11.63,33.9-30.88,33.9-21.12,0-33.37-13.76-33.37-33.9s11.54-33.9,33.99-33.9c7.19,0,16.24,2.22,22.98,7.28l-5.41,9.5c-6.12-4.79-12.87-5.95-18.19-5.95-13.84,0-21.65,9.5-21.65,23.07s7.37,23.07,21.65,23.07c12.6,0,18.9-8.7,19.44-17.48h-18.81Z"/>
    <path d="M235.39,92.52c0-15,9.05-25.83,24.67-25.83s23.52,10.47,23.52,25.83c0,1.77-.18,3.11-.44,4.79h-36.03c.8,7.45,7.37,11.27,15,11.27,6.39,0,10.29-1.24,15.44-3.99l4.08,8.61c-5.41,3.37-11.54,5.15-20.32,5.15-16.68,0-25.91-10.47-25.91-25.82ZM272.49,88.62c-.27-7.72-4.17-12.16-12.42-12.16-7.81,0-12.69,4.61-12.69,12.16h25.12Z"/>
    <path d="M292.18,117.28v-49.52h9.41l.89,8.61c3.37-6.83,9.32-9.76,16.33-9.76,6.57,0,12.51,3.02,15.71,9.76,3.02-5.5,7.81-9.76,17.66-9.76,11.54,0,19.61,7.54,19.61,22.72v27.95h-10.83v-28.22c0-7.99-3.99-11.89-11.27-11.89-8.43,0-12.33,6.21-12.33,14.64v25.47h-10.83v-28.22c0-7.99-3.99-11.89-11.18-11.89-8.43,0-12.34,6.21-12.34,15.09v25.03h-10.83Z"/>
    <path d="M432.04,91.46c0,16.68-10.83,26.89-27.07,26.89-7.9,0-17.22-3.19-22.01-8.25v-56.71l10.83-2.84v24.49c3.82-6.12,10.47-8.34,16.15-8.34,12.78,0,22.1,8.7,22.1,24.76ZM420.68,91.46c0-9.5-4.44-15.18-13.49-15.18-8.43,0-13.4,7.28-13.4,16.33v13.76c3.28,1.77,6.92,2.57,11.54,2.57,10.56,0,15.35-6.75,15.35-17.48Z"/>
    <path d="M496.37,105.57v9.67c-1.24,1.51-4.53,3.11-8.52,3.11s-9.67-1.86-11.36-8.7c-2.84,4.53-7.9,8.7-15.89,8.7-13.58,0-22.81-8.7-22.81-25.38s10.38-26.27,24.58-26.27c5.95,0,10.92,1.69,14.91,4.62l1.24-3.55h8.34v34.97c0,3.99,1.42,5.15,4.53,5.15,1.42,0,2.93-.53,4.97-2.31ZM476.05,92.43v-11.89c-3.37-2.57-7.45-3.73-12.78-3.73-9.76,0-14.11,5.95-14.11,16.15,0,9.67,4.44,14.91,13.22,14.91s13.67-6.39,13.67-15.44Z"/>
  </g>
</svg>